<?xml version="1.0" encoding="UTF-8"?>
<svg id="Layer_1" xmlns="http://www.w3.org/2000/svg" version="1.1" viewBox="0 0 8192 8192">
  <!-- Generator: Adobe Illustrator 30.5.1, SVG Export Plug-In . SVG Version: 2.1.4 Build 3)  -->
  <defs>
    <style>
      .st0, .st1, .st2, .st3, .st4 {
        stroke: #000;
        stroke-miterlimit: 8.19;
      }

      .st0, .st2, .st3 {
        fill: none;
      }

      .st0, .st4 {
        stroke-width: 4.1px;
      }

      .st1, .st2 {
        stroke-width: .02px;
      }

      .st1, .st4 {
        fill: #fff;
      }

      .st3 {
        stroke-width: 0px;
      }
    </style>
  </defs>
  <g>
    <path d="M4904.89,3287.11v1616.28h-1616.28v-1616.28h1616.28M4915.2,3276.8h-1638.4v1638.4h1638.4v-1638.4h0Z"/>
    <g>
      <path d="M2508.77,528.56l5154.68,1978.7-1978.7,5154.68L530.07,5683.23,2508.77,528.56M2494.63,496.8L498.32,5697.37l5200.57,1996.31,1996.31-5200.57L2494.63,496.8h0Z"/>
      <path d="M4817.32,2681.06l693.62,2134.75-2134.75,693.62-693.62-2134.75,2134.75-693.62M4833.1,2650.09l-2181.5,708.81,708.81,2181.5,2181.5-708.81-708.81-2181.5h0Z"/>
      <path d="M1912.18,313.52l5966.3,1598.66-1598.66,5966.3L313.52,6279.82,1912.18,313.52M1894.8,283.42L283.42,6297.2l6013.78,1611.38,1611.38-6013.78L1894.8,283.42h0Z"/>
      <path d="M4522.34,2090.22l1579.43,2432.12-2432.12,1579.43-1579.43-2432.12,2432.12-1579.43M4529.57,2056.22l-2473.34,1606.21,1606.21,2473.34,2473.34-1606.21-1606.21-2473.34h0Z"/>
      <path d="M1325.02,138.64l6728.34,1186.38-1186.38,6728.33L138.64,6866.98,1325.02,138.64M1305.09,110.17L110.17,6886.91l6776.73,1194.92,1194.92-6776.73L1305.09,110.17h0Z"/>
      <path d="M4096,1582.01l2513.99,2513.99-2513.99,2513.99-2513.99-2513.99,2513.99-2513.99M4096,1547.25l-2548.75,2548.75,2548.75,2548.75,2548.75-2548.75-2548.75-2548.75h0Z"/>
      <path d="M692.79,40.21l7459,652.57-652.57,7459L40.21,7499.21,692.79,40.21M670.45,13.59L13.59,7521.55l7507.96,656.86,656.86-7507.96L670.45,13.59h0Z"/>
      <path d="M3630.24,1155.25l3406.52,2474.98-2474.98,3406.52-3406.52-2474.99L3630.24,1155.25M3624.8,1120.92l-2503.88,3446.28,3446.28,2503.88,2503.88-3446.28L3624.8,1120.92h0Z"/>
      <path d="M8167.42,24.58v8142.85H24.58V24.58h8142.85M8192,0H0v8192h8192V0h0Z"/>
      <path d="M3090.01,805.54l4296.47,2284.47-2284.47,4296.47L805.54,5101.99,3090.01,805.54M3079.84,772.29L772.29,5112.16l4339.87,2307.55,2307.55-4339.87L3079.84,772.29h0Z"/>
    </g>
  </g>
  <line class="st2" x1="4099.07" y1="4200.28" x2="4100.86" y2="4197.7"/>
  <path class="st2" d="M4099.07,4199.65"/>
  <path class="st2" d="M4099.07,4199.65"/>
  <path class="st0" d="M3632.86,4273.6"/>
  <path class="st0" d="M3632.86,3662.5"/>
  <path class="st0" d="M4559.14,4273.6"/>
  <path class="st0" d="M4559.14,3662.5"/>
  <path class="st0" d="M4559.14,3662.5"/>
  <path class="st0" d="M3632.86,3662.5"/>
  <line class="st0" x1="3632.85" y1="4402.18" x2="3276.8" y2="4915.2"/>
  <line class="st0" x1="4559.14" y1="4402.18" x2="4915.2" y2="4915.2"/>
  <line class="st0" x1="4559.14" y1="3789.82" x2="4915.2" y2="3276.8"/>
  <line class="st0" x1="3632.86" y1="3789.82" x2="3276.8" y2="3276.8"/>
  <g>
    <rect class="st0" x="3632.86" y="3789.82" width="926.29" height="612.37"/>
    <g>
      <rect class="st0" x="3836.85" y="4204.89" width="518.3" height="33.21" rx=".82" ry=".82"/>
      <rect class="st0" x="3856.7" y="3946.93" width="478.58" height="257.96" rx=".82" ry=".82"/>
    </g>
  </g>
  <g>
    <path class="st4" d="M4164.11,4370.64c4.35,2.48,7.14,7.78,8.77,13.56,1.67,5.87,1.79,11.98,1.79,18.38,0,8.08-.2,16.14-1.87,23.97l-152.51-.02c-1.61-7.34-1.94-14.87-1.93-22.42,0-6.09,0-11.89,1.33-17.6,1.34-6.71,4.42-12.46,8.98-16.02"/>
    <g>
      <g>
        <path class="st0" d="M4164.96,4450.82"/>
        <path class="st0" d="M4116.4,4450.82"/>
        <path class="st0" d="M4164.96,4450.82l-2.55,38.01-3.25,46.35-2.47,31.06c-2.17,18.55-16.61,32.69-31.01,25.5-9.48-4.73-16.64-17.53-15.79-31.34l6.52-109.58"/>
        <path class="st0" d="M4075.89,4448.82"/>
        <path class="st0" d="M4027.37,4448.83"/>
        <path class="st0" d="M4076.01,4450.82l4.56,77,1.84,30.81c.63,10.53-2.35,20.17-8.31,27.26-8.92,10.63-21.5,10.25-30.29-.44-4.7-5.72-7.68-13.37-8.39-21.95l-4.22-59.24-3.71-53.44"/>
      </g>
      <path class="st4" d="M4196.56,4326.99l9.86-.25c5.14-1.02,9.13-5.87,10.1-11.7.7-4.15,0-8.32-.7-12.53l-3.65-22.11c-.16-.98-.35-1.96-.72-2.87l-3.23-16.25c-2.44-12.3-5.8-23.99-10.41-35.39-9.9-24.47-24.88-39.77-47.24-48.35-10.49-4.02-21.3-6.35-32.33-7.59,14.57-6.5,26.47-19.51,32.06-36.59,4.98-15.24,5.21-32.1,1.2-47.55-4.78-18.43-16.42-33.19-31.81-40.91-23.2-11.64-50.5-5.28-67.47,16.25-5.99,7.59-9.81,16.19-12.21,25.72-2.54,10.11-2.75,20.32-1.81,30.75,2.15,23.78,15.44,43.59,34.96,52.19-10.99,1.23-21.8,3.69-32.25,7.63-12.36,4.66-23.72,12.08-32.71,23.16-12.08,14.87-20.01,38.14-23.87,57.27l-4.73,23.44c-.15.71-.2,1.4-.2,2.06-1.72,8.6-3.12,17.1-4.1,25.91-.87,7.91,3.13,15.73,9.87,17.41,3.45.86,6.85.34,10.32.2"/>
      <g>
        <rect class="st0" x="3996.7" y="4262.33" width="199.31" height="108.14" rx=".82" ry=".82"/>
        <g>
          <line class="st0" x1="4151.01" y1="4370.48" x2="4151.01" y2="4426.55"/>
          <line class="st0" x1="4041" y1="4370.48" x2="4041" y2="4426.55"/>
        </g>
        <g>
          <path class="st0" d="M3996.7,4629.95l.68-178.6c0-.45.37-.82.82-.82h197.61c.45,0,.82.37.82.82l-.68,178.6"/>
          <rect class="st0" x="3976.02" y="4426.55" width="240.62" height="23.98" rx=".82" ry=".82"/>
          <path class="st0" d="M4178.31,4597.24v-145.89c0-.45-.37-.82-.82-.82h-162.32c-.45,0-.82.37-.82.82v145.89"/>
        </g>
      </g>
    </g>
  </g>
  <rect class="st0" x="3276.8" y="3276.8" width="1638.4" height="1638.4"/>
  <g>
    <rect class="st3" x="4075.51" y="4075.52" width="40.96" height="40.96"/>
    <g>
      <path d="M4088.06,4078.14l25.81,9.9-9.9,25.81-25.81-9.9,9.9-25.81M4088.01,4078.01l-9.98,26,26,9.98,9.98-26-26-9.98h0Z"/>
      <path d="M4099.63,4088.9l3.48,10.72-10.72,3.48-3.48-10.72,10.72-3.48M4099.7,4088.78l-10.9,3.55,3.55,10.9,10.9-3.55-3.55-10.9h0Z"/>
      <path d="M4085.07,4077.06l29.87,8-8,29.87-29.87-8,8-29.87M4085.01,4076.94l-8.05,30.07,30.07,8.05,8.05-30.07-30.07-8.05h0Z"/>
      <path d="M4098.15,4085.94l7.92,12.2-12.2,7.92-7.92-12.2,12.2-7.92M4098.18,4085.8l-12.37,8.03,8.03,12.37,12.37-8.03-8.03-12.37h0Z"/>
      <path d="M4082.14,4076.19l33.69,5.94-5.94,33.69-33.69-5.94,5.94-33.69M4082.06,4076.07l-5.97,33.88,33.88,5.97,5.97-33.88-33.88-5.97h0Z"/>
      <path d="M4096.01,4083.4l12.6,12.6-12.6,12.6-12.6-12.6,12.6-12.6M4096.01,4083.26l-12.75,12.75,12.75,12.75,12.75-12.75-12.75-12.75h0Z"/>
      <path d="M4078.98,4075.7l37.34,3.27-3.27,37.34-37.34-3.27,3.27-37.34M4078.88,4075.59l-3.28,37.54,37.54,3.28,3.28-37.54-37.54-3.28h0Z"/>
      <path d="M4093.68,4081.27l17.06,12.4-12.4,17.06-17.06-12.4,12.4-17.06M4093.66,4081.13l-12.52,17.23,17.23,12.52,12.52-17.23-17.23-12.52h0Z"/>
      <path d="M4116.39,4075.63v40.76h-40.76v-40.76h40.76M4116.49,4075.52h-40.96v40.96h40.96v-40.96h0Z"/>
      <path d="M4090.97,4079.52l21.52,11.44-11.44,21.52-21.52-11.44,11.44-21.52M4090.93,4079.38l-11.53,21.7,21.7,11.53,11.53-21.7-21.7-11.53h0Z"/>
    </g>
    <g>
      <path d="M4100.04,4091.92v8.15h-8.15v-8.15h8.15M4100.06,4091.91h-8.19v8.19h8.19v-8.19h0Z"/>
      <line class="st2" x1="4093.65" y1="4097.53" x2="4091.87" y2="4100.1"/>
      <path class="st2" d="M4093.65,4096.9"/>
      <path class="st2" d="M4093.65,4093.85"/>
      <line class="st2" x1="4098.28" y1="4097.53" x2="4100.06" y2="4100.1"/>
      <line class="st2" x1="4093.65" y1="4094.47" x2="4091.87" y2="4091.91"/>
      <path class="st2" d="M4098.28,4096.9"/>
      <path class="st2" d="M4093.65,4093.85"/>
      <rect class="st2" x="4093.65" y="4094.47" width="4.63" height="3.06"/>
      <g>
        <rect class="st2" x="4094.67" y="4096.54" width="2.59" height=".16" rx=".02" ry=".02"/>
        <rect class="st2" x="4094.77" y="4095.26" width="2.39" height="1.29" rx=".02" ry=".02"/>
      </g>
      <g>
        <path class="st2" d="M4096.31,4098.26"/>
        <path class="st2" d="M4096.06,4098.26"/>
        <path class="st2" d="M4096.31,4098.26l-.02.19-.02.23-.02.16c0,.09-.08.16-.16.13-.05-.02-.08-.09-.08-.16l.03-.55"/>
        <path class="st2" d="M4095.86,4098.26"/>
        <path class="st2" d="M4095.62,4098.26"/>
        <path class="st2" d="M4095.86,4098.26l.02.39v.16s0,.1-.03.14c-.04.05-.11.05-.15,0-.02-.02-.04-.07-.04-.11l-.02-.29-.02-.27"/>
      </g>
      <path class="st2" d="M4096.3,4097.86s.03.04.04.07,0,.06,0,.09v.12h-.76v-.2s.02-.07.04-.08"/>
      <path class="st1" d="M4096.46,4097.64h.05s.05-.03.05-.06v-.07l-.02-.11v-.02l-.02-.08c0-.07-.03-.12-.05-.18-.05-.12-.12-.2-.24-.25-.05-.02-.11-.03-.16-.04.07-.03.13-.1.16-.18.02-.07.02-.16,0-.24-.02-.09-.08-.16-.16-.2-.11-.06-.25-.02-.34.08-.03.04-.05.08-.06.13-.02.05-.02.1,0,.16,0,.12.07.22.17.26-.06,0-.11.02-.16.04-.07.02-.11.06-.16.11-.06.07-.1.19-.12.29l-.02.11h0s-.02.09-.02.14c0,.04.02.08.05.09h.05"/>
      <g>
        <rect class="st2" x="4095.46" y="4097.32" width="1" height=".54" rx=".04" ry=".04"/>
        <g>
          <line class="st2" x1="4096.23" y1="4097.86" x2="4096.23" y2="4098.14"/>
          <line class="st2" x1="4095.69" y1="4097.86" x2="4095.69" y2="4098.14"/>
        </g>
        <g>
          <path class="st2" d="M4095.46,4099.16v-.86s.02-.04.04-.04h.92s.04.02.04.04v.86"/>
          <rect class="st2" x="4095.36" y="4098.14" width="1.2" height=".12" rx=".04" ry=".04"/>
          <path class="st2" d="M4096.37,4098.99v-.7s-.02-.04-.04-.04h-.74s-.04.02-.04.04v.7"/>
        </g>
      </g>
      <rect class="st2" x="4091.87" y="4091.91" width="8.19" height="8.19"/>
      <rect x="4095.88" y="4096.42" width=".16" height=".16"/>
    </g>
  </g>
</svg>
