<?xml version="1.0" encoding="UTF-8"?><svg id="Layer_1" xmlns="http://www.w3.org/2000/svg" viewBox="0 0 8191.99979 8191.99979"><path d="M4904.89428,3287.10552v1616.28156h-1616.28156v-1616.28156h1616.28156M4915.95348,3276.04632h-1638.39996v1638.39996h1638.39996v-1638.39996h0Z"/><path d="M2508.76714,528.55604l5154.67667,1978.6955-1978.69555,5154.67627L530.07154,5683.23266,2508.76714,528.55604M2494.62774,496.80384L498.31934,5697.37186l5200.56812,1996.30795,1996.30835-5200.56827L2494.62774,496.80384h0Z"/><path d="M4817.32188,2681.06133l693.62478,2134.75295-2134.75315,693.62478-693.62478-2134.75315,2134.75315-693.62478M4833.09948,2650.08733l-2181.49674,708.81258,708.81278,2181.49674,2181.49674-708.81278-708.81278-2181.49674h0v.0002Z"/><path d="M1912.17655,313.52422l5966.29925,1598.66053-1598.66076,5966.29905L313.52422,6279.82304,1912.17655,313.52422M1894.80135,283.41862L283.41862,6297.19824l6013.78002,1611.38236,1611.38276-6013.77985L1894.80135,283.41862h0Z"/><path d="M4522.34429,2090.22155l1579.43396,2432.12274-2432.12274,1579.43396-1579.43396-2432.12274,2432.12274-1579.43396M4529.56949,2056.22475l-2473.33674,1606.20556,1606.20556,2473.34474,2473.33674-1606.20556-1606.20556-2473.34494h0v.0002Z"/><path d="M1325.02317,138.64141l6728.33503,1186.38176-1186.38157,6728.32703L138.64141,6866.97663,1325.02317,138.64141M1305.09207,110.17421L110.17421,6886.90783l6776.73362,1194.91757,1194.91757-6776.73343L1305.09207,110.17421h0Z"/><path d="M4095.9999,1582.00626l2513.99354,2513.99364-2513.99354,2513.99354L1582.00616,4095.9999,4095.9999,1582.00616M4095.9999,1547.24756L1547.24756,4095.9999l2548.75234,2548.75234,2548.75234-2548.75234L4095.9999,1547.24756h0Z"/><path d="M692.78923,40.21453l7458.99616,652.57471-652.57438,7458.99616L40.21453,7499.21021,692.78923,40.21453M670.44963,13.59053L13.59053,7521.55021l7507.95968,656.85918,656.85918-7507.95981L670.44963,13.59053h0Z"/><path d="M3630.23551,1155.25217l3406.52031,2474.98334-2474.98314,3406.52031-3406.52051-2474.99154L3630.23551,1155.25217M3624.79591,1120.91957l-2503.87634,3446.28431,3446.28431,2503.87674,2503.87674-3446.28431L3624.79591,1120.91957h0Z"/><path d="M8167.42379,24.576v8142.84779H24.576V24.576h8142.84779M8191.99979,0H0v8191.99979h8191.99979V0h0Z"/><path d="M3090.00592,805.53573l4296.46589,2284.47019-2284.47034,4296.46589L805.53573,5101.99387,3090.00592,805.53573M3079.83972,772.29258L772.29258,5112.16027l4339.86729,2307.54674,2307.54714-4339.86749L3079.83972,772.29258h0Z"/><line x1="4099.0719" y1="4200.27589" x2="4100.8579" y2="4197.70349" fill="none" stroke="#000" stroke-miterlimit="8.192" stroke-width=".02458"/><line x1="3632.84871" y1="4399.10389" x2="3276.79992" y2="4912.11988" fill="none" stroke="#000" stroke-miterlimit="8.192" stroke-width="4.096"/><line x1="4559.14268" y1="4399.09589" x2="4915.19988" y2="4912.11988" fill="none" stroke="#000" stroke-miterlimit="8.192" stroke-width="4.096"/><line x1="4559.14268" y1="3786.7355" x2="4915.19988" y2="3273.71972" fill="none" stroke="#000" stroke-miterlimit="8.192" stroke-width="4.096"/><line x1="3632.85711" y1="3786.7355" x2="3276.79992" y2="3273.71972" fill="none" stroke="#000" stroke-miterlimit="8.192" stroke-width="4.096"/><rect x="3632.85711" y="3786.7355" width="926.29398" height="612.36838" fill="none" stroke="#000" stroke-miterlimit="8.192" stroke-width="4.096"/><rect x="3836.8459" y="4201.80789" width="518.29959" height="33.2104" rx=".8192" ry=".8192" fill="none" stroke="#000" stroke-miterlimit="8.192" stroke-width="4.096"/><rect x="3856.7115" y="3943.8499" width="478.57679" height="257.95799" rx=".8192" ry=".8192" fill="none" stroke="#000" stroke-miterlimit="8.192" stroke-width="4.096"/><path d="M4166.21349,4370.93989c4.35,2.482,7.1352,7.7824,8.7736,13.5576,1.6712,5.8656,1.794,11.9768,1.794,18.3828,0,8.0772-.2048,16.1384-1.8676,23.9696l-152.5104-.0244c-1.614-7.34-1.9416-14.8684-1.9252-22.4216.008-6.0948,0-11.8948,1.3272-17.6048,1.3436-6.7092,4.4236-12.46,8.9784-16.0152" fill="#fff" stroke="#000" stroke-miterlimit="8.192" stroke-width="4.096"/><path d="M4167.05749,4451.12309l-2.5476,38.0108-3.2524,46.3504-2.4656,31.064c-2.1708,18.5468-16.6132,32.686-31.0148,25.5016-9.478-4.7268-16.638-17.5308-15.794-31.3424l6.5208-109.5844" fill="none" stroke="#000" stroke-miterlimit="8.192" stroke-width="4.096"/><path d="M4078.1087,4451.11509l4.5628,77.0048,1.8432,30.81c.6308,10.5348-2.3512,20.1688-8.3148,27.2628-8.9212,10.6252-21.504,10.248-30.286-.4424-4.7024-5.718-7.676-13.3692-8.3888-21.9464l-4.2188-59.2364-3.7108-53.4448" fill="none" stroke="#000" stroke-miterlimit="8.192" stroke-width="4.096"/><path d="M4198.66189,4327.29269l9.8632-.254c5.1444-1.016,9.126-5.8656,10.1008-11.698.6964-4.1452,0-8.3232-.6964-12.5336l-3.6456-22.1104c-.164-.9832-.3524-1.958-.7208-2.8672l-3.2276-16.2528c-2.4412-12.296-5.8-23.9944-10.412-35.3896-9.904-24.4696-24.8792-39.772-47.2352-48.3492-10.4856-4.0224-21.2992-6.3488-32.334-7.5856,14.5736-6.5044,26.4684-19.5052,32.0552-36.5856,4.9808-15.2372,5.21-32.0964,1.2044-47.5544-4.784-18.432-16.4248-33.194-31.8096-40.9108-23.1996-11.6408-50.5036-5.2756-67.4692,16.2528-5.9884,7.594-9.806,16.1872-12.206,25.7228-2.5396,10.1088-2.7524,20.3244-1.8104,30.7528,2.1464,23.7812,15.442,43.5896,34.9552,52.1912-10.9936,1.2288-21.7988,3.6864-32.252,7.6268-12.3616,4.6612-23.716,12.0832-32.7108,23.1588-12.0752,14.8684-20.0132,38.142-23.8716,57.2704l-4.7268,23.4372c-.1476.7128-.2048,1.4008-.2048,2.056-1.7204,8.6016-3.1212,17.1048-4.096,25.9112-.8684,7.9052,3.1292,15.7288,9.8712,17.408,3.4488.86,6.8484.336,10.322.2048" fill="#fff" stroke="#000" stroke-miterlimit="8.192" stroke-width="4.096"/><rect x="3998.8019" y="4262.63349" width="199.31119" height="108.1424" rx=".8192" ry=".8192" fill="none" stroke="#000" stroke-miterlimit="8.192" stroke-width="4.096"/><line x1="4153.1147" y1="4370.77589" x2="4153.1147" y2="4426.85029" fill="none" stroke="#000" stroke-miterlimit="8.192" stroke-width="4.096"/><line x1="4043.1043" y1="4370.77589" x2="4043.1043" y2="4426.85029" fill="none" stroke="#000" stroke-miterlimit="8.192" stroke-width="4.096"/><path d="M3998.8019,4630.24948l.68-178.602c0-.4504.3688-.8192.8192-.8192h197.6076c.4504,0,.8192.3688.8192.8192l-.68,178.602" fill="none" stroke="#000" stroke-miterlimit="8.192" stroke-width="4.096"/><rect x="3978.1171" y="4426.85029" width="240.62359" height="23.978" rx=".8192" ry=".8192" fill="none" stroke="#000" stroke-miterlimit="8.192" stroke-width="4.096"/><path d="M4180.41029,4597.53868v-145.8912c0-.4504-.3688-.8192-.8192-.8192h-162.3244c-.4504,0-.8192.3688-.8192.8192v145.8912" fill="none" stroke="#000" stroke-miterlimit="8.192" stroke-width="4.096"/><rect x="3276.79992" y="3273.71972" width="1638.39996" height="1638.40016" fill="none" stroke="#000" stroke-miterlimit="8.192" stroke-width="4.096"/><rect x="4077.6087" y="4079.4931" width="40.96" height="40.96" fill="none" stroke="#000" stroke-miterlimit="8.192" stroke-width=".8192"/><path d="M4090.1835,4082.1063l25.8128,9.904-9.904,25.8128-25.8128-9.904,9.904-25.8128M4090.1263,4081.9751l-9.978,26.0016,26.0016,9.978,9.978-26.0016-26.0016-9.978h0Z"/><path d="M4101.7507,4092.8707l3.4816,10.7152-10.7152,3.4816-3.4816-10.7152,10.7152-3.4816M4101.8163,4092.7475l-10.9036,3.5472,3.5472,10.9036,10.9036-3.5472-3.5472-10.9036h0Z"/><path d="M4087.1935,4081.0331l29.868,8.0036-8.0036,29.868-29.868-8.0036,8.0036-29.868M4087.1279,4080.9103l-8.0528,30.0728,30.0728,8.0528,8.0528-30.0728-30.0728-8.0528h0Z"/><path d="M4100.2679,4089.9131l7.9216,12.198-12.198,7.9216-7.9216-12.198,12.198-7.9216M4100.3007,4089.7739l-12.37,8.028,8.028,12.37,12.37-8.028-8.028-12.37h0Z"/><path d="M4084.2607,4080.1647l33.6856,5.9392-5.9392,33.6856-33.6856-5.9392,5.9392-33.6856M4084.1787,4080.0419l-5.972,33.882,33.882,5.972,5.972-33.882-33.882-5.972h0Z"/><path d="M4098.1299,4087.3739l12.5992,12.5992-12.5992,12.5992-12.5992-12.5992,12.5992-12.5992M4098.1299,4087.2263l-12.7468,12.7468,12.7468,12.7468,12.7468-12.7468-12.7468-12.7468h0Z"/><path d="M4081.0987,4079.6731l37.3392,3.2688-3.2688,37.3392-37.3392-3.2688,3.2688-37.3392M4081.0003,4079.5587l-3.2848,37.5356,37.5356,3.2848,3.2848-37.5356-37.544-3.2848h.0084Z"/><path d="M4095.7951,4085.2439l17.064,12.4028-12.4028,17.064-17.064-12.4028,12.4028-17.064M4095.7787,4085.0963l-12.5172,17.2276,17.2276,12.5172,12.5172-17.2276-17.2276-12.5172h0Z"/><path d="M4118.5115,4079.5995v40.7552h-40.7552v-40.7552h40.7552M4118.6099,4079.4931h-40.96v40.96h40.96v-40.96h0Z"/><path d="M4093.0919,4083.4907l21.5204,11.4444-11.4444,21.5204-21.5204-11.4444,11.4444-21.5204M4093.0507,4083.3515l-11.5344,21.7008,21.7008,11.5344,11.5344-21.7008-21.7008-11.5344h0Z"/><path d="M4102.1359,4095.8935v8.1512h-8.1512v-8.1512h8.1512M4102.1603,4095.8771h-8.192v8.192h8.192v-8.192h0Z"/><line x1="4095.7459" y1="4101.4967" x2="4093.9683" y2="4104.0691" fill="none" stroke="#000" stroke-miterlimit="8.192" stroke-width=".02458"/><line x1="4100.3827" y1="4101.4967" x2="4102.1603" y2="4104.0691" fill="none" stroke="#000" stroke-miterlimit="8.192" stroke-width=".02458"/><line x1="4095.7459" y1="4098.4411" x2="4093.9683" y2="4095.8771" fill="none" stroke="#000" stroke-miterlimit="8.192" stroke-width=".02458"/><rect x="4095.7459" y="4098.4411" width="4.6284" height="3.064" fill="none" stroke="#000" stroke-miterlimit="8.192" stroke-width=".02458"/><rect x="4096.7699" y="4100.5135" width="2.5888" height=".164" rx=".0164" ry=".0164" fill="none" stroke="#000" stroke-miterlimit="8.192" stroke-width=".02458"/><rect x="4096.8683" y="4099.2275" width="2.392" height="1.286" rx=".0164" ry=".0164" fill="none" stroke="#000" stroke-miterlimit="8.192" stroke-width=".02458"/><path d="M4098.4083,4102.2339l-.0164.1884-.0164.2292-.0164.1556c-.008.09-.082.164-.1556.1312-.0492-.0244-.082-.09-.082-.1556l.0328-.5488" fill="none" stroke="#000" stroke-miterlimit="8.192" stroke-width=".02458"/><path d="M4097.9579,4102.2339l.0244.3852v.1556c.0164.0492,0,.0984-.0328.1392-.0408.0492-.1064.0492-.1476,0-.0244-.0244-.0408-.0656-.0408-.1064l-.0244-.2948-.0164-.2704" fill="none" stroke="#000" stroke-miterlimit="8.192" stroke-width=".02458"/><path d="M4098.4003,4101.8327s.0328.0408.0408.0656.008.0572.008.09c0,.0408,0,.082-.008.1228h-.762s-.008-.0736-.008-.1148v-.09c0-.0328.0244-.0656.0408-.082" fill="none" stroke="#000" stroke-miterlimit="8.192" stroke-width=".02458"/><path d="M4098.5639,4101.6115h.0492s.0492-.0328.0492-.0572v-.0656l-.0164-.1064v-.0164l-.0164-.082c-.008-.0656-.0328-.1228-.0492-.1804-.0492-.1228-.1228-.1968-.2376-.2456-.0492-.0164-.1064-.0328-.164-.0408.0736-.0328.1312-.0984.164-.1804.0244-.0736.0244-.164,0-.2376-.0244-.09-.082-.164-.1556-.2048-.1148-.0572-.254-.0244-.336.082-.0328.0408-.0492.082-.0572.1312-.0164.0492-.0164.0984-.008.1556.008.1228.0736.2212.172.262-.0572,0-.1064.0164-.164.0408-.0656.0244-.1148.0572-.164.1148-.0572.0736-.0984.1884-.1228.2868l-.0244.1148v.008c-.008.0408-.0164.082-.0164.1312,0,.0408.0164.082.0492.09h.0492" fill="#fff" stroke="#000" stroke-miterlimit="8.192" stroke-width=".02458"/><rect x="4097.5647" y="4101.2919" width=".9996" height=".5408" rx=".0408" ry=".0408" fill="none" stroke="#000" stroke-miterlimit="8.192" stroke-width=".02458"/><line x1="4098.3347" y1="4101.8327" x2="4098.3347" y2="4102.1111" fill="none" stroke="#000" stroke-miterlimit="8.192" stroke-width=".02458"/><line x1="4097.7859" y1="4101.8327" x2="4097.7859" y2="4102.1111" fill="none" stroke="#000" stroke-miterlimit="8.192" stroke-width=".02458"/><path d="M4097.5647,4103.1271v-.86s.0244-.0408.0408-.0408h.9176s.0408.0164.0408.0408v.86" fill="none" stroke="#000" stroke-miterlimit="8.192" stroke-width=".02458"/><rect x="4097.4579" y="4102.1111" width="1.2044" height=".1228" rx=".0408" ry=".0408" fill="none" stroke="#000" stroke-miterlimit="8.192" stroke-width=".02458"/><path d="M4098.4739,4102.9631v-.6964s-.0164-.0408-.0408-.0408h-.7372s-.0408.0164-.0408.0408v.6964" fill="none" stroke="#000" stroke-miterlimit="8.192" stroke-width=".02458"/><rect x="4093.9683" y="4095.8771" width="8.192" height="8.192" fill="none" stroke="#000" stroke-miterlimit="8.192" stroke-width=".02458"/><rect x="4097.9823" y="4100.3907" width=".164" height=".164" fill="none" stroke="#000" stroke-miterlimit="8.192" stroke-width=".00819"/></svg>